<?xml version="1.0" encoding="UTF-8" ?>
<!DOCTYPE svg PUBLIC "-//W3C//DTD SVG 1.1//EN" "http://www.w3.org/Graphics/SVG/1.1/DTD/svg11.dtd">
<svg width="128pt" height="128pt" viewBox="0 0 128 128" version="1.1" xmlns="http://www.w3.org/2000/svg">
<g id="#1127494c">
<path fill="#112749" opacity="0.30" d=" M 43.60 13.65 C 44.11 11.70 44.75 9.26 47.06 8.81 C 49.90 7.89 52.80 11.02 51.77 13.81 C 49.39 24.13 46.60 34.36 44.14 44.66 C 57.38 44.68 70.62 44.68 83.86 44.66 C 81.40 34.36 78.62 24.14 76.23 13.83 C 75.23 11.04 78.07 7.89 80.93 8.81 C 83.24 9.26 83.90 11.70 84.40 13.65 C 86.95 24.00 89.51 34.34 92.14 44.67 C 97.41 44.79 102.70 44.41 107.96 44.82 C 112.36 45.17 116.11 48.77 117.04 53.02 C 117.76 55.75 116.82 58.51 116.02 61.10 C 112.44 71.58 109.00 82.09 105.48 92.59 C 103.74 97.55 102.75 103.06 98.82 106.88 C 102.61 95.86 102.19 83.15 95.79 73.17 C 87.62 59.39 70.00 52.27 54.56 56.57 C 38.76 60.48 26.69 75.70 26.70 92.01 C 26.47 97.09 27.89 102.02 29.18 106.88 C 27.41 104.89 25.78 102.70 25.01 100.12 C 20.69 87.11 16.40 74.09 11.99 61.11 C 11.18 58.51 10.23 55.74 10.95 53.01 C 11.95 48.43 16.25 44.76 20.99 44.72 C 25.94 44.51 30.90 44.75 35.86 44.67 C 38.48 34.34 41.06 24.00 43.60 13.65 Z" />
</g>
<g id="#3b82f6ff">
<path fill="#3b82f6" opacity="1.00" d=" M 58.43 66.60 C 70.84 63.68 84.51 71.13 88.87 83.08 C 92.04 91.16 90.90 100.76 85.89 107.85 C 81.42 114.37 73.92 118.69 66.03 119.23 C 57.98 119.91 49.74 116.62 44.33 110.63 C 38.29 104.18 35.94 94.60 38.17 86.06 C 40.52 76.43 48.72 68.58 58.43 66.60 M 52.45 86.44 C 54.11 88.79 56.40 90.60 58.37 92.67 C 56.35 94.80 53.93 96.63 52.34 99.12 C 50.97 101.97 53.94 105.55 57.00 104.51 C 59.88 103.21 61.69 100.38 64.00 98.33 C 66.32 100.42 68.17 103.19 71.03 104.58 C 74.07 105.38 76.95 102.10 75.70 99.22 C 74.16 96.66 71.67 94.83 69.65 92.67 C 71.71 90.40 74.45 88.59 75.80 85.79 C 76.95 82.59 73.11 79.42 70.19 81.15 C 67.85 82.77 66.08 85.08 64.00 87.01 C 61.67 84.97 59.88 82.10 56.99 80.81 C 53.80 79.82 50.84 83.57 52.45 86.44 Z" />
</g>
</svg>
