<?xml version="1.0" encoding="UTF-8" ?>
<!DOCTYPE svg PUBLIC "-//W3C//DTD SVG 1.1//EN" "http://www.w3.org/Graphics/SVG/1.1/DTD/svg11.dtd">
<svg width="128pt" height="128pt" viewBox="0 0 128 128" version="1.1" xmlns="http://www.w3.org/2000/svg">
<g id="#1127494c">
<path fill="#112749" opacity="0.30" d=" M 44.08 12.07 C 44.47 8.86 48.97 7.42 50.99 10.06 C 52.62 11.73 51.65 14.12 51.31 16.10 C 48.84 25.60 46.50 35.14 44.13 44.67 C 57.38 44.68 70.62 44.68 83.87 44.67 C 81.45 34.90 79.02 25.14 76.53 15.39 C 76.06 13.41 75.60 10.89 77.54 9.51 C 79.82 7.56 83.55 9.22 83.93 12.10 C 86.78 22.93 89.34 33.83 92.13 44.68 C 97.41 44.80 102.71 44.39 107.98 44.83 C 113.40 45.24 117.70 50.60 117.28 55.95 C 116.78 59.55 115.35 62.92 114.22 66.35 C 111.23 75.35 108.23 84.35 105.22 93.35 C 103.62 98.02 102.64 103.19 98.90 106.73 C 101.28 98.79 102.38 90.20 99.79 82.16 C 96.74 71.61 88.78 62.61 78.65 58.36 C 69.20 54.26 58.04 54.36 48.67 58.65 C 38.32 63.28 30.35 72.84 27.73 83.88 C 25.72 91.45 26.90 99.34 29.10 106.73 C 27.36 104.78 25.72 102.69 25.02 100.12 C 20.49 86.35 15.81 72.63 11.30 58.85 C 8.92 52.80 13.50 45.38 19.95 44.84 C 25.24 44.39 30.56 44.80 35.87 44.68 C 38.66 33.82 41.22 22.90 44.08 12.07 Z" />
</g>
<g id="#3b82f6ff">
<path fill="#3b82f6" opacity="1.00" d=" M 58.43 66.60 C 66.73 64.78 75.81 67.23 82.03 73.04 C 88.85 79.21 92.05 89.05 90.09 98.05 C 88.14 108.21 79.68 116.68 69.55 118.74 C 60.50 120.74 50.57 117.55 44.36 110.67 C 38.30 104.19 35.91 94.56 38.20 85.99 C 40.55 76.38 48.75 68.57 58.43 66.60 M 72.08 83.06 C 68.34 86.44 64.95 90.19 61.32 93.70 C 59.14 91.58 57.24 89.03 54.54 87.53 C 51.33 86.36 48.08 90.17 49.81 93.12 C 52.26 96.32 55.38 98.94 58.18 101.82 C 59.69 103.51 62.51 103.90 64.11 102.12 C 67.95 98.65 71.38 94.75 75.17 91.22 C 76.75 89.50 79.25 87.70 78.51 85.02 C 78.03 82.19 74.05 81.03 72.08 83.06 Z" />
</g>
</svg>
