<?xml version="1.0" encoding="UTF-8" ?>
<!DOCTYPE svg PUBLIC "-//W3C//DTD SVG 1.1//EN" "http://www.w3.org/Graphics/SVG/1.1/DTD/svg11.dtd">
<svg width="128pt" height="128pt" viewBox="0 0 128 128" version="1.1" xmlns="http://www.w3.org/2000/svg">
<g id="#1127494c">
<path fill="#112749" opacity="0.30" d=" M 46.23 9.10 C 49.11 7.37 52.97 10.68 51.76 13.81 C 49.40 24.13 46.60 34.36 44.13 44.66 C 57.38 44.68 70.62 44.68 83.87 44.66 C 81.50 35.16 79.17 25.63 76.70 16.15 C 76.22 13.97 75.36 11.12 77.51 9.53 C 79.76 7.58 83.51 9.16 83.90 12.04 C 86.79 22.88 89.33 33.81 92.13 44.67 C 97.42 44.80 102.73 44.39 108.00 44.84 C 113.45 45.26 117.78 50.70 117.26 56.08 C 116.76 59.61 115.34 62.92 114.24 66.29 C 111.32 75.05 108.41 83.81 105.48 92.56 C 103.74 97.54 102.76 103.07 98.82 106.89 C 102.31 96.55 102.32 84.76 96.89 75.07 C 89.58 60.93 72.57 52.77 56.96 56.03 C 43.50 58.48 31.94 68.99 28.20 82.15 C 25.63 90.25 26.67 98.92 29.18 106.88 C 27.42 104.87 25.74 102.72 25.00 100.10 C 20.54 86.58 16.02 73.08 11.51 59.58 C 8.74 53.41 13.13 45.44 19.92 44.84 C 25.22 44.39 30.55 44.80 35.87 44.67 C 38.47 34.34 41.07 24.01 43.60 13.66 C 44.13 12.00 44.45 9.90 46.23 9.10 Z" />
</g>
<g id="#3b82f6ff">
<path fill="#3b82f6" opacity="1.00" d=" M 58.39 66.61 C 65.75 65.02 73.76 66.69 79.80 71.21 C 86.35 75.99 90.50 83.88 90.63 92.00 C 90.85 99.06 88.08 106.14 83.15 111.19 C 77.75 116.84 69.76 119.88 61.97 119.23 C 53.85 118.69 46.16 114.11 41.72 107.30 C 37.44 100.88 36.23 92.56 38.42 85.17 C 41.01 75.94 49.01 68.55 58.39 66.61 M 60.39 80.32 C 59.66 83.03 60.05 85.90 60.01 88.68 C 57.35 88.62 54.68 88.52 52.05 88.90 C 48.71 89.87 48.40 95.06 51.71 96.30 C 54.41 96.99 57.25 96.62 60.01 96.66 C 60.15 100.32 58.59 106.95 63.99 107.33 C 69.40 106.97 67.85 100.32 67.99 96.66 C 70.76 96.64 73.58 96.95 76.30 96.32 C 79.58 95.06 79.31 89.80 75.92 88.89 C 73.30 88.52 70.64 88.62 67.99 88.68 C 67.95 85.90 68.34 83.03 67.60 80.32 C 66.38 77.26 61.64 77.31 60.39 80.32 Z" />
</g>
</svg>
